<svg xmlns="http://www.w3.org/2000/svg" viewBox="0 0 1550 500"><defs><style>.cls-1{fill:#129091;}.cls-2{fill:#8e8e8e;}</style></defs><title>logo</title><g id="design"><path class="cls-1" d="M629.69,162.46a39.5,39.5,0,0,0-10.83-13.12V35.69A16.11,16.11,0,0,0,602.76,19.6H461.12A16.11,16.11,0,0,0,445,35.69V129.2l-304.12-.12h-.53a59.72,59.72,0,1,0,0,15.22h.52c74.4.33,103.77,56.4,137.73,121.26,37.51,71.64,79.94,152.64,195.85,155.6a66.76,66.76,0,1,0,0-15.23C367.83,403,329.35,329.59,292.13,258.5c-17.43-33.28-33.89-64.72-56.82-88.77a134.59,134.59,0,0,0-32.48-25.4l242.2.1v93.83a16.11,16.11,0,0,0,16.09,16.09H561.71V263c.7,5.76,4.76,8.34,8.47,8.34,3.29,0,6.1-2.23,7.46-3.32l13.86-11.56L606,268.69a10.27,10.27,0,0,0,6.53,2.41c3.26,0,8.79-2.36,8.79-11.2l.31-45.81C635.33,201,638.74,179.37,629.69,162.46ZM540.8,360.95a52.7,52.7,0,1,1-52.7,52.7A52.76,52.76,0,0,1,540.8,360.95Zm35-137.83a35.59,35.59,0,0,0,11.34,3h.44a11.83,11.83,0,0,0,3.23.31h5.7l.28-.28a2.48,2.48,0,0,1,.45,0,6.56,6.56,0,0,0,1.55-.21,3.09,3.09,0,0,1,.59-.1,3,3,0,0,0,1-.22l.23-.09a4.58,4.58,0,0,0,1.35-.24l.18-.07h.52l.28-.31h.9l.31-.31h.45a2,2,0,0,0,1-.28l.06,0H606l.31-.31.35-.12a3.4,3.4,0,0,1,.68-.22c.21-.05.44-.11.69-.2l-.07,28.57L596.19,242a6.68,6.68,0,0,0-4.48-1.54,6.55,6.55,0,0,0-4.42,1.49l-11.76,9.92Zm33.57-15.92c-.36.29-.72.57-1.15.87l-.18.16a4.27,4.27,0,0,1-1,.66c-.33.17-.7.37-1.07.62a14.32,14.32,0,0,0-1.35.61c-.39.19-.77.38-1.12.51a2.37,2.37,0,0,0-.7.26l-.06,0h-.36l-.32.32a3.65,3.65,0,0,0-.8.21l-.23.09-.31,0a31,31,0,0,1-21.58-1.7,2.9,2.9,0,0,0-.87-.43c-.08,0-.15,0-.16,0l-.34-.34h-.34l0,0a2.6,2.6,0,0,0-.65-.25,1.56,1.56,0,0,0-.37-.23l-.25-.23c-.43-.29-.79-.58-1.15-.87s-.75-.6-1.19-.9l-.23-.24-.19-.15a18.59,18.59,0,0,1-2.55-2.28l-.62-.62a13.33,13.33,0,0,1-1.7-2l-.17-.19a.88.88,0,0,1-.07-.13,2.82,2.82,0,0,0-.46-.68,19,19,0,0,1-2-3.12,31.08,31.08,0,0,1-3.54-14.08A29.32,29.32,0,0,1,577.73,157l.16-.1a9.3,9.3,0,0,1,2.15-1.12c.36-.15.73-.3,1.09-.48h.25l.2-.08A29.08,29.08,0,0,1,600.9,155l.18.06h.22c.53.26,1,.47,1.5.67s1,.43,1.6.73l.25.13h.14l0,0a3.1,3.1,0,0,0,.45.19,7.23,7.23,0,0,0,1.35.85,9.55,9.55,0,0,1,1,.58,29.86,29.86,0,0,1,10,10.87c6.8,12.18,3.85,27.81-7,37.2C610.14,206.59,609.75,206.9,609.36,207.2Zm-4.42-63.46a43,43,0,0,0-29.53.83h-.3l-.21.09c-1.62.66-2.9,1.29-4,1.87l-.28.2a5.14,5.14,0,0,1-1.3.89h-84.7a6.64,6.64,0,1,0,0,13.29h70.54a46.55,46.55,0,0,0-5.28,11,45.61,45.61,0,0,0-1.1,5.54H484.59a6.64,6.64,0,1,0,0,13.29h64.21a63.58,63.58,0,0,0,2.62,9.31c.66,1.62,1.29,2.9,1.88,4l.44.52c.2.3.36.61.51.89a7.66,7.66,0,0,0,.85,1.35,2.36,2.36,0,0,0,.42.69H484.59a6.64,6.64,0,1,0,0,13.29h77.12v19H461.12a2.36,2.36,0,0,1-2.5-2.5V35.69a2.36,2.36,0,0,1,2.5-2.5H602.45a2.36,2.36,0,0,1,2.5,2.5Z"/><polygon class="cls-1" points="576.23 396.5 567.44 387.71 529.38 425.77 514.74 411.14 505.96 419.92 529.38 443.34 576.23 396.5"/><path class="cls-1" d="M566.7,81.58v-6h-18a6,6,0,0,0-6-6h-24a6,6,0,0,0-6,6h-18v6h6l-12,24a12,12,0,0,0,12,12h6a12,12,0,0,0,12-12l-12-24h6a6,6,0,0,0,6-6h6l.18,48.06h-.18c-2.52,0-6,2.7-6,6h-6c-2.52,0-6,2.7-6,6h48.06c0-3.3-3.48-6-6-6h-6c0-3.3-3.48-6-6-6V75.58h6a6,6,0,0,0,6,6h6l-12,24a12,12,0,0,0,12,12h6a12,12,0,0,0,12-12l-12-24Zm-54.06,24h-18l9-18Zm54.06,0h-18l9-18Z"/><path class="cls-1" d="M539.67,60.56a9,9,0,1,0-9,9A9,9,0,0,0,539.67,60.56Z"/></g><g id="text_path" data-name="text path"><path class="cls-2" d="M730,92a52.21,52.21,0,0,1,2-14.77,34.78,34.78,0,0,1,5.64-11.49,25.08,25.08,0,0,1,20.61-10,25,25,0,0,1,10.3,2,23,23,0,0,1,7.81,5.74V27.18h15.75V128H777.88l-.79-7.22a22.55,22.55,0,0,1-8,6.33,25.51,25.51,0,0,1-10.93,2.2,24.6,24.6,0,0,1-11.62-2.72,26.41,26.41,0,0,1-8.83-7.51A35.78,35.78,0,0,1,732,107.67a49.16,49.16,0,0,1-2-14.34Zm15.69,1.38a42,42,0,0,0,.92,9,22.56,22.56,0,0,0,2.92,7.35,14.77,14.77,0,0,0,5.12,5,14.61,14.61,0,0,0,7.45,1.81,15.28,15.28,0,0,0,8.79-2.33,16.73,16.73,0,0,0,5.45-6.27V77a16.49,16.49,0,0,0-5.48-6.17,15.24,15.24,0,0,0-8.63-2.3,14.55,14.55,0,0,0-7.51,1.84,14.88,14.88,0,0,0-5.12,5.05,23.86,23.86,0,0,0-3,7.48,41.51,41.51,0,0,0-1,9.06Z"/><path class="cls-2" d="M845.87,129.3a38,38,0,0,1-14.37-2.63,33.24,33.24,0,0,1-11.12-7.22,32.37,32.37,0,0,1-7.19-10.86A35.5,35.5,0,0,1,810.63,95V92.35a40.42,40.42,0,0,1,2.72-15.23,36.09,36.09,0,0,1,7.29-11.55,31.36,31.36,0,0,1,10.63-7.35A32.52,32.52,0,0,1,844,55.66a33.71,33.71,0,0,1,13.65,2.59,26.9,26.9,0,0,1,9.88,7.29,31.9,31.9,0,0,1,6,11.12,46.62,46.62,0,0,1,2,14.11V97.4H826.38a23.38,23.38,0,0,0,2,7.68,20.49,20.49,0,0,0,4.3,6.14,19.45,19.45,0,0,0,6.23,4.07,20.36,20.36,0,0,0,7.84,1.48,25.5,25.5,0,0,0,11-2.36,21.68,21.68,0,0,0,8.17-6.5l8.53,8a26.08,26.08,0,0,1-4.4,5,30.6,30.6,0,0,1-6.3,4.27,38,38,0,0,1-8.11,3A39.61,39.61,0,0,1,845.87,129.3Zm-1.9-61a15.64,15.64,0,0,0-6.1,1.18A15.37,15.37,0,0,0,832.81,73,20,20,0,0,0,829,78.47a27,27,0,0,0-2.2,7.38h33.27V84.67a22.67,22.67,0,0,0-1.21-6.07,16.08,16.08,0,0,0-3-5.22,14.33,14.33,0,0,0-5-3.68A16.54,16.54,0,0,0,844,68.33Z"/><path class="cls-2" d="M955.61,93.2a53.66,53.66,0,0,1-1.84,14.37A34.86,34.86,0,0,1,948.39,119a25.43,25.43,0,0,1-8.7,7.55,25,25,0,0,1-11.85,2.72,27,27,0,0,1-10.67-2,22.63,22.63,0,0,1-8-5.64v33.6H893.52V57H908l.66,7.15a23.5,23.5,0,0,1,8.11-6.27,25.51,25.51,0,0,1,10.93-2.2,26.31,26.31,0,0,1,12,2.63,24.57,24.57,0,0,1,8.76,7.38,34.09,34.09,0,0,1,5.38,11.42,55.35,55.35,0,0,1,1.84,14.73Zm-15.69-1.38a39.77,39.77,0,0,0-1-9,23.59,23.59,0,0,0-3-7.42,15.18,15.18,0,0,0-5.18-5,14.6,14.6,0,0,0-7.48-1.84,15.54,15.54,0,0,0-8.66,2.23,15.77,15.77,0,0,0-5.38,6v31.77a16.54,16.54,0,0,0,5.35,6,15.41,15.41,0,0,0,8.83,2.3,14.19,14.19,0,0,0,7.48-1.9,15.36,15.36,0,0,0,5.15-5.12,23.89,23.89,0,0,0,3-7.48,41.55,41.55,0,0,0,1-9.06Z"/><path class="cls-2" d="M1007.19,129.3a38,38,0,0,1-14.37-2.63,33.24,33.24,0,0,1-11.12-7.22,32.37,32.37,0,0,1-7.19-10.86A35.5,35.5,0,0,1,972,95V92.35a40.42,40.42,0,0,1,2.72-15.23A36.09,36.09,0,0,1,982,65.57a31.36,31.36,0,0,1,10.63-7.35,32.52,32.52,0,0,1,12.77-2.56A33.71,33.71,0,0,1,1019,58.25a26.9,26.9,0,0,1,9.88,7.29,31.9,31.9,0,0,1,6,11.12,46.62,46.62,0,0,1,2,14.11V97.4H987.7a23.38,23.38,0,0,0,2,7.68,20.49,20.49,0,0,0,4.3,6.14,19.45,19.45,0,0,0,6.23,4.07,20.36,20.36,0,0,0,7.84,1.48,25.5,25.5,0,0,0,11-2.36,21.68,21.68,0,0,0,8.17-6.5l8.53,8a26.08,26.08,0,0,1-4.4,5,30.6,30.6,0,0,1-6.3,4.27,38,38,0,0,1-8.11,3A39.61,39.61,0,0,1,1007.19,129.3Zm-1.9-61a15.64,15.64,0,0,0-6.1,1.18A15.37,15.37,0,0,0,994.13,73a20,20,0,0,0-3.77,5.51,27,27,0,0,0-2.2,7.38h33.27V84.67a22.67,22.67,0,0,0-1.21-6.07,16.08,16.08,0,0,0-3-5.22,14.33,14.33,0,0,0-5-3.68A16.54,16.54,0,0,0,1005.29,68.33Z"/><path class="cls-2" d="M1069,57l1,9.84a27.52,27.52,0,0,1,9.35-8.24,25.48,25.48,0,0,1,12.17-2.92,29.91,29.91,0,0,1,9.94,1.58,19.73,19.73,0,0,1,7.74,4.92,22.7,22.7,0,0,1,5.05,8.66,40,40,0,0,1,1.8,12.8V128h-15.69V83.88a22.83,22.83,0,0,0-1-7.35,11.56,11.56,0,0,0-2.89-4.73,10.72,10.72,0,0,0-4.56-2.53,22.64,22.64,0,0,0-6.1-.75,17.25,17.25,0,0,0-9,2.3,17.83,17.83,0,0,0-6.2,6.23V128h-15.75V57Z"/><path class="cls-2" d="M1133.34,92a52.17,52.17,0,0,1,2-14.77A34.77,34.77,0,0,1,1141,65.7a25.08,25.08,0,0,1,20.61-10,25,25,0,0,1,10.3,2,23,23,0,0,1,7.81,5.74V27.18h15.75V128h-14.24l-.79-7.22a22.55,22.55,0,0,1-8,6.33,25.51,25.51,0,0,1-10.93,2.2,24.6,24.6,0,0,1-11.62-2.72,26.4,26.4,0,0,1-8.83-7.51,35.77,35.77,0,0,1-5.64-11.39,49.16,49.16,0,0,1-2-14.34ZM1149,93.33a42,42,0,0,0,.92,9,22.56,22.56,0,0,0,2.92,7.35,14.77,14.77,0,0,0,5.12,5,14.61,14.61,0,0,0,7.45,1.81,15.29,15.29,0,0,0,8.79-2.33,16.73,16.73,0,0,0,5.45-6.27V77a16.49,16.49,0,0,0-5.48-6.17,15.24,15.24,0,0,0-8.63-2.3,14.56,14.56,0,0,0-7.51,1.84,14.89,14.89,0,0,0-5.12,5.05,23.87,23.87,0,0,0-3,7.48,41.51,41.51,0,0,0-1,9.06Z"/><path class="cls-2" d="M1249.18,129.3a38,38,0,0,1-14.37-2.63,33.24,33.24,0,0,1-11.12-7.22,32.37,32.37,0,0,1-7.19-10.86A35.5,35.5,0,0,1,1213.93,95V92.35a40.42,40.42,0,0,1,2.72-15.23,36.09,36.09,0,0,1,7.29-11.55,31.36,31.36,0,0,1,10.63-7.35,32.52,32.52,0,0,1,12.77-2.56A33.71,33.71,0,0,1,1261,58.25a26.9,26.9,0,0,1,9.88,7.29,31.9,31.9,0,0,1,6,11.12,46.62,46.62,0,0,1,2,14.11V97.4h-49.22a23.38,23.38,0,0,0,2,7.68,20.49,20.49,0,0,0,4.3,6.14,19.45,19.45,0,0,0,6.23,4.07,20.36,20.36,0,0,0,7.84,1.48,25.5,25.5,0,0,0,11-2.36,21.68,21.68,0,0,0,8.17-6.5l8.53,8a26.08,26.08,0,0,1-4.4,5,30.6,30.6,0,0,1-6.3,4.27,38,38,0,0,1-8.11,3A39.61,39.61,0,0,1,1249.18,129.3Zm-1.9-61a15.64,15.64,0,0,0-6.1,1.18,15.37,15.37,0,0,0-5.05,3.45,20,20,0,0,0-3.77,5.51,27,27,0,0,0-2.2,7.38h33.27V84.67a22.67,22.67,0,0,0-1.21-6.07,16.08,16.08,0,0,0-3-5.22,14.33,14.33,0,0,0-5-3.68A16.54,16.54,0,0,0,1247.27,68.33Z"/><path class="cls-2" d="M1310.93,57l1,9.84a27.52,27.52,0,0,1,9.35-8.24,25.48,25.48,0,0,1,12.17-2.92,29.91,29.91,0,0,1,9.94,1.58,19.73,19.73,0,0,1,7.74,4.92,22.7,22.7,0,0,1,5.05,8.66,40,40,0,0,1,1.8,12.8V128h-15.69V83.88a22.83,22.83,0,0,0-1-7.35,11.56,11.56,0,0,0-2.89-4.73,10.72,10.72,0,0,0-4.56-2.53,22.64,22.64,0,0,0-6.1-.75,17.25,17.25,0,0,0-9,2.3,17.83,17.83,0,0,0-6.2,6.23V128h-15.75V57Z"/><path class="cls-2" d="M1408.46,116.83a17.42,17.42,0,0,0,5.61-.92,16.14,16.14,0,0,0,4.82-2.56,12.43,12.43,0,0,0,3.31-3.87,9.49,9.49,0,0,0,1.15-4.86h14.83a19.6,19.6,0,0,1-2.33,9.62,25.6,25.6,0,0,1-6.5,7.84,33.17,33.17,0,0,1-20.77,7.29,34.25,34.25,0,0,1-14.37-2.82,29.16,29.16,0,0,1-10.3-7.71,32.9,32.9,0,0,1-6.2-11.35,44.88,44.88,0,0,1-2.07-13.75V91.36a45.2,45.2,0,0,1,2.07-13.78,32.52,32.52,0,0,1,6.2-11.35,29.7,29.7,0,0,1,10.3-7.71,33.74,33.74,0,0,1,14.31-2.85,35,35,0,0,1,11.91,2,28.48,28.48,0,0,1,9.45,5.51,24.75,24.75,0,0,1,6.17,8.47,25.39,25.39,0,0,1,2.13,10.76h-14.83a13,13,0,0,0-4.13-9.91,15.39,15.39,0,0,0-4.79-3,16,16,0,0,0-6-1.12,14.71,14.71,0,0,0-13.45,7.25,22.59,22.59,0,0,0-2.79,7.38,43,43,0,0,0-.82,8.4v2.36a43.33,43.33,0,0,0,.82,8.47,22.58,22.58,0,0,0,2.79,7.38,15.44,15.44,0,0,0,5.25,5.25A15.63,15.63,0,0,0,1408.46,116.83Z"/><path class="cls-2" d="M1486.23,99.57l2.69,8.53,20-51.13h17.39l-36,81.78a49.38,49.38,0,0,1-3.08,5.81,29.3,29.3,0,0,1-4.69,5.81,24.28,24.28,0,0,1-6.66,4.5,21.26,21.26,0,0,1-9.06,1.8,27,27,0,0,1-4.36-.36q-2.2-.36-3.91-.82l2.23-12.21,1.25,0q.79,0,1.64.1l1.61.1,1.21,0a6.69,6.69,0,0,0,4.1-1.35,17.08,17.08,0,0,0,3.18-3.08,22.46,22.46,0,0,0,2.26-3.41q.89-1.67,1.28-2.26l4.66-8.79L1451.78,57h17.33Z"/><path class="cls-2" d="M735,188.47h38.39v87.81h21.66v13H735v-13H757.6V201.53H735Z"/><path class="cls-2" d="M816.21,218.27h37.87v58h21.07v13H816.21v-13h22.05v-45H816.21Zm20.74-18.38a8.29,8.29,0,0,1,2.36-6.07,8.89,8.89,0,0,1,6.63-2.4,9.1,9.1,0,0,1,6.73,2.4,8.89,8.89,0,0,1,0,12.14,9.1,9.1,0,0,1-6.73,2.4,8.89,8.89,0,0,1-6.63-2.4A8.29,8.29,0,0,1,836.95,199.89Z"/><path class="cls-2" d="M924.5,278.12a17.42,17.42,0,0,0,5.61-.92,16.13,16.13,0,0,0,4.82-2.56,12.44,12.44,0,0,0,3.31-3.87,9.49,9.49,0,0,0,1.15-4.86h14.83a19.6,19.6,0,0,1-2.33,9.61,25.61,25.61,0,0,1-6.5,7.84,33.16,33.16,0,0,1-20.77,7.29,34.25,34.25,0,0,1-14.37-2.82,29.16,29.16,0,0,1-10.3-7.71,32.91,32.91,0,0,1-6.2-11.36A44.88,44.88,0,0,1,891.68,255v-2.36a45.2,45.2,0,0,1,2.07-13.78,32.52,32.52,0,0,1,6.2-11.35,29.7,29.7,0,0,1,10.3-7.71A33.74,33.74,0,0,1,924.57,217a35,35,0,0,1,11.91,2,28.48,28.48,0,0,1,9.45,5.51,24.75,24.75,0,0,1,6.17,8.47,25.39,25.39,0,0,1,2.13,10.76H939.4a13,13,0,0,0-4.13-9.91,15.39,15.39,0,0,0-4.79-3,16,16,0,0,0-6-1.12A14.71,14.71,0,0,0,911,236.87a22.59,22.59,0,0,0-2.79,7.38,43,43,0,0,0-.82,8.4V255a43.32,43.32,0,0,0,.82,8.47,22.58,22.58,0,0,0,2.79,7.38,15.44,15.44,0,0,0,5.25,5.25A15.65,15.65,0,0,0,924.5,278.12Z"/><path class="cls-2" d="M1007.19,290.59A38,38,0,0,1,992.82,288a33.26,33.26,0,0,1-11.12-7.22,32.38,32.38,0,0,1-7.19-10.86A35.51,35.51,0,0,1,972,256.33v-2.69a40.42,40.42,0,0,1,2.72-15.23A36.09,36.09,0,0,1,982,226.86a31.36,31.36,0,0,1,10.63-7.35,32.52,32.52,0,0,1,12.77-2.56,33.71,33.71,0,0,1,13.65,2.59,26.9,26.9,0,0,1,9.88,7.29,31.9,31.9,0,0,1,6,11.12,46.62,46.62,0,0,1,2,14.11v6.63H987.7a23.38,23.38,0,0,0,2,7.68,20.49,20.49,0,0,0,4.3,6.14,19.45,19.45,0,0,0,6.23,4.07,20.36,20.36,0,0,0,7.84,1.48,25.48,25.48,0,0,0,11-2.36,21.67,21.67,0,0,0,8.17-6.5l8.53,8a26,26,0,0,1-4.4,5,30.65,30.65,0,0,1-6.3,4.27,38,38,0,0,1-8.11,3A39.58,39.58,0,0,1,1007.19,290.59Zm-1.9-61a15.64,15.64,0,0,0-6.1,1.18,15.37,15.37,0,0,0-5.05,3.45,20,20,0,0,0-3.77,5.51,27,27,0,0,0-2.2,7.38h33.27V246a22.67,22.67,0,0,0-1.21-6.07,16.08,16.08,0,0,0-3-5.22,14.33,14.33,0,0,0-5-3.68A16.54,16.54,0,0,0,1005.29,229.62Z"/><path class="cls-2" d="M1069,218.27l1,9.84a27.52,27.52,0,0,1,9.35-8.24,25.48,25.48,0,0,1,12.17-2.92,29.91,29.91,0,0,1,9.94,1.58,19.73,19.73,0,0,1,7.74,4.92,22.7,22.7,0,0,1,5.05,8.66,40,40,0,0,1,1.8,12.8v44.37h-15.69v-44.1a22.83,22.83,0,0,0-1-7.35,11.56,11.56,0,0,0-2.89-4.73,10.72,10.72,0,0,0-4.56-2.53,22.64,22.64,0,0,0-6.1-.75,17.25,17.25,0,0,0-9,2.3,17.83,17.83,0,0,0-6.2,6.23v50.93h-15.75v-71Z"/><path class="cls-2" d="M1181.71,270.05a7.31,7.31,0,0,0-.72-3.25,7,7,0,0,0-2.59-2.69,22,22,0,0,0-5.12-2.27,73.6,73.6,0,0,0-8.3-2,84.08,84.08,0,0,1-11.39-3.15,36.94,36.94,0,0,1-8.73-4.4,18.94,18.94,0,0,1-5.61-5.94,15.29,15.29,0,0,1-2-7.84,17.59,17.59,0,0,1,2-8.24,21,21,0,0,1,5.81-6.86,29.29,29.29,0,0,1,9.19-4.69,39.5,39.5,0,0,1,12.11-1.74,42.11,42.11,0,0,1,12.7,1.77,29.54,29.54,0,0,1,9.48,4.82,21.14,21.14,0,0,1,5.94,7.19,19.54,19.54,0,0,1,2.07,8.86h-15.69a9.31,9.31,0,0,0-.92-4,10,10,0,0,0-2.76-3.45,13.88,13.88,0,0,0-4.56-2.4,20.26,20.26,0,0,0-6.27-.89,22.13,22.13,0,0,0-6.14.75,14.27,14.27,0,0,0-4.3,2,7.8,7.8,0,0,0-2.53,2.85,7.53,7.53,0,0,0-.82,3.41,8,8,0,0,0,.62,3.22,6.35,6.35,0,0,0,2.33,2.63,17.81,17.81,0,0,0,4.73,2.13,63.94,63.94,0,0,0,7.81,1.8,86,86,0,0,1,12,3,36.87,36.87,0,0,1,9.12,4.33,18.66,18.66,0,0,1,5.81,6.07,16.14,16.14,0,0,1,2,8.24,17.68,17.68,0,0,1-2.17,8.66,20.41,20.41,0,0,1-6.17,6.79,30.66,30.66,0,0,1-9.61,4.43,46.47,46.47,0,0,1-12.57,1.58,41.25,41.25,0,0,1-13.65-2.07,31.46,31.46,0,0,1-9.91-5.41,22.94,22.94,0,0,1-6.07-7.61,19.68,19.68,0,0,1-2.07-8.66h15.23a11.18,11.18,0,0,0,1.71,5.58,11.83,11.83,0,0,0,3.87,3.71,17.2,17.2,0,0,0,5.25,2,27.57,27.57,0,0,0,5.84.62q7.29,0,11.09-2.46T1181.71,270.05Z"/><path class="cls-2" d="M1249.18,290.59A38,38,0,0,1,1234.8,288a33.26,33.26,0,0,1-11.12-7.22,32.38,32.38,0,0,1-7.19-10.86,35.51,35.51,0,0,1-2.56-13.55v-2.69a40.42,40.42,0,0,1,2.72-15.23,36.09,36.09,0,0,1,7.29-11.55,31.36,31.36,0,0,1,10.63-7.35,32.52,32.52,0,0,1,12.77-2.56,33.71,33.71,0,0,1,13.65,2.59,26.9,26.9,0,0,1,9.88,7.29,31.9,31.9,0,0,1,6,11.12,46.62,46.62,0,0,1,2,14.11v6.63h-49.22a23.38,23.38,0,0,0,2,7.68,20.49,20.49,0,0,0,4.3,6.14,19.45,19.45,0,0,0,6.23,4.07,20.36,20.36,0,0,0,7.84,1.48,25.48,25.48,0,0,0,11-2.36,21.67,21.67,0,0,0,8.17-6.5l8.53,8a26,26,0,0,1-4.4,5,30.65,30.65,0,0,1-6.3,4.27,38,38,0,0,1-8.11,3A39.58,39.58,0,0,1,1249.18,290.59Zm-1.9-61a15.64,15.64,0,0,0-6.1,1.18,15.37,15.37,0,0,0-5.05,3.45,20,20,0,0,0-3.77,5.51,27,27,0,0,0-2.2,7.38h33.27V246a22.67,22.67,0,0,0-1.21-6.07,16.08,16.08,0,0,0-3-5.22,14.33,14.33,0,0,0-5-3.68A16.54,16.54,0,0,0,1247.27,229.62Z"/><path class="cls-2" d="M765.21,451.89a38,38,0,0,1-14.37-2.62A33.26,33.26,0,0,1,739.72,442a32.37,32.37,0,0,1-7.19-10.86A35.51,35.51,0,0,1,730,417.63v-2.69a40.44,40.44,0,0,1,2.72-15.23A36.09,36.09,0,0,1,740,388.16a31.36,31.36,0,0,1,10.63-7.35,32.55,32.55,0,0,1,12.77-2.56A33.69,33.69,0,0,1,777,380.84a26.9,26.9,0,0,1,9.88,7.29,31.91,31.91,0,0,1,6,11.13,46.61,46.61,0,0,1,2,14.11V420H745.72a23.42,23.42,0,0,0,2,7.68,20.51,20.51,0,0,0,4.3,6.14,19.46,19.46,0,0,0,6.23,4.07,20.35,20.35,0,0,0,7.84,1.48,25.48,25.48,0,0,0,11-2.36,21.67,21.67,0,0,0,8.17-6.5l8.53,8a26,26,0,0,1-4.4,5,30.65,30.65,0,0,1-6.3,4.27,38,38,0,0,1-8.11,3A39.59,39.59,0,0,1,765.21,451.89Zm-1.9-61a15.65,15.65,0,0,0-6.1,1.18,15.37,15.37,0,0,0-5.05,3.45,19.94,19.94,0,0,0-3.77,5.51,27,27,0,0,0-2.2,7.38h33.27v-1.18a22.67,22.67,0,0,0-1.21-6.07,16.06,16.06,0,0,0-3-5.22,14.31,14.31,0,0,0-5-3.68A16.52,16.52,0,0,0,763.31,390.92Z"/><path class="cls-2" d="M843.84,403.58l16.93-24h17.46l-25.07,35,25.86,36H861.63L844,425.7l-17.52,24.87H809l25.86-36-25.07-35h17.39Z"/><path class="cls-2" d="M955.61,415.79a53.67,53.67,0,0,1-1.84,14.37,34.85,34.85,0,0,1-5.38,11.45,25.44,25.44,0,0,1-8.7,7.55,25,25,0,0,1-11.85,2.72,27,27,0,0,1-10.67-2,22.63,22.63,0,0,1-8-5.64v33.6H893.52V379.56H908l.66,7.15a23.5,23.5,0,0,1,8.11-6.27,25.52,25.52,0,0,1,10.93-2.2,26.3,26.3,0,0,1,12,2.63,24.56,24.56,0,0,1,8.76,7.38,34.11,34.11,0,0,1,5.38,11.42,55.36,55.36,0,0,1,1.84,14.73Zm-15.69-1.38a39.76,39.76,0,0,0-1-9,23.6,23.6,0,0,0-3-7.42,15.17,15.17,0,0,0-5.18-5,14.6,14.6,0,0,0-7.48-1.84,15.54,15.54,0,0,0-8.66,2.23,15.77,15.77,0,0,0-5.38,6v31.77a16.54,16.54,0,0,0,5.35,6,15.41,15.41,0,0,0,8.83,2.3,14.18,14.18,0,0,0,7.48-1.9,15.39,15.39,0,0,0,5.15-5.12,23.92,23.92,0,0,0,3-7.48,41.55,41.55,0,0,0,1-9.06Z"/><path class="cls-2" d="M977,349.77h38.39v87.81h21.66v13H977v-13h22.58V362.83H977Z"/><path class="cls-2" d="M1051.89,414.41a44,44,0,0,1,2.26-14.31,34,34,0,0,1,6.5-11.49A29.77,29.77,0,0,1,1071,381a33.29,33.29,0,0,1,13.85-2.76,33.7,33.7,0,0,1,13.95,2.76,29.71,29.71,0,0,1,10.37,7.61,33.55,33.55,0,0,1,6.46,11.49,44.61,44.61,0,0,1,2.23,14.31v1.38a44.83,44.83,0,0,1-2.23,14.37,33.17,33.17,0,0,1-6.46,11.45,30,30,0,0,1-10.34,7.58A33.33,33.33,0,0,1,1085,452,33.72,33.72,0,0,1,1071,449.2a29.89,29.89,0,0,1-10.37-7.58,33.59,33.59,0,0,1-6.5-11.45,44.22,44.22,0,0,1-2.26-14.37Zm15.69,1.38a39.19,39.19,0,0,0,1,9.12,23.46,23.46,0,0,0,3.15,7.52,15.7,15.7,0,0,0,5.41,5.12,15.51,15.51,0,0,0,7.81,1.87,15,15,0,0,0,7.65-1.87,15.81,15.81,0,0,0,5.38-5.12,23.52,23.52,0,0,0,3.15-7.52,39.24,39.24,0,0,0,1-9.12v-1.38a38.69,38.69,0,0,0-1-9,23.14,23.14,0,0,0-3.15-7.48,16.25,16.25,0,0,0-5.38-5.12,16.77,16.77,0,0,0-15.52,0,15.83,15.83,0,0,0-5.38,5.12,23.54,23.54,0,0,0-3.12,7.48,38.64,38.64,0,0,0-1,9Z"/><path class="cls-2" d="M1184.2,378.25q1.9,0,3.81.13t3.64.39q1.74.26,3.18.56a14.53,14.53,0,0,1,2.43.69L1195,395.45a64.13,64.13,0,0,0-14.24-1.64q-7.87,0-12.7,3.28a19.21,19.21,0,0,0-7.12,9.12v44.37h-15.69v-71H1160l.72,11.09a32.68,32.68,0,0,1,10.27-9.09A26.68,26.68,0,0,1,1184.2,378.25Z"/><path class="cls-2" d="M1249.18,451.89a38,38,0,0,1-14.37-2.62,33.26,33.26,0,0,1-11.12-7.22,32.38,32.38,0,0,1-7.19-10.86,35.51,35.51,0,0,1-2.56-13.55v-2.69a40.43,40.43,0,0,1,2.72-15.23,36.08,36.08,0,0,1,7.29-11.55,31.37,31.37,0,0,1,10.63-7.35,32.55,32.55,0,0,1,12.77-2.56,33.7,33.7,0,0,1,13.65,2.59,26.9,26.9,0,0,1,9.88,7.29,31.91,31.91,0,0,1,6,11.13,46.61,46.61,0,0,1,2,14.11V420h-49.22a23.38,23.38,0,0,0,2,7.68,20.49,20.49,0,0,0,4.3,6.14,19.45,19.45,0,0,0,6.23,4.07,20.36,20.36,0,0,0,7.84,1.48,25.48,25.48,0,0,0,11-2.36,21.67,21.67,0,0,0,8.17-6.5l8.53,8a26,26,0,0,1-4.4,5,30.65,30.65,0,0,1-6.3,4.27,38,38,0,0,1-8.11,3A39.58,39.58,0,0,1,1249.18,451.89Zm-1.9-61a15.65,15.65,0,0,0-6.1,1.18,15.36,15.36,0,0,0-5.05,3.45,20,20,0,0,0-3.77,5.51,27,27,0,0,0-2.2,7.38h33.27v-1.18a22.67,22.67,0,0,0-1.21-6.07,16.06,16.06,0,0,0-3-5.22,14.32,14.32,0,0,0-5-3.68A16.52,16.52,0,0,0,1247.27,390.92Z"/><path class="cls-2" d="M1345.52,378.25q1.9,0,3.81.13t3.64.39q1.74.26,3.18.56a14.53,14.53,0,0,1,2.43.69l-2.23,15.42a64.13,64.13,0,0,0-14.24-1.64q-7.87,0-12.7,3.28a19.21,19.21,0,0,0-7.12,9.12v44.37H1306.6v-71h14.7l.72,11.09a32.68,32.68,0,0,1,10.27-9.09A26.68,26.68,0,0,1,1345.52,378.25Z"/></g></svg>